<svg id="svg4" width="24" height="24" version="1.1" viewBox="0 0 24 24" xmlns="http://www.w3.org/2000/svg">
 <path id="path2" d="m12 2-2.8105 6.6191-7.1895 0.62109 5.4492 4.7305-1.6289 7.0293 6.1797-3.7305 6.1797 3.7305-1.6406-7.0293 5.4609-4.7305-7.1895-0.62109-2.8105-6.6191zm-0.34766 4.7617c0.20359 0.040257 0.36719 0.20859 0.36719 0.41797 0 0.059705 0.009297 0.078481 0.035157 0.068359 0.049899-0.019594 0.023775 0.076811-0.052735 0.19336-0.03313 0.050478-0.058594 0.10662-0.058594 0.125 0 0.018376-0.009864 0.033203-0.021484 0.033203-0.0424 0-0.27067 0.25553-0.38867 0.43555-0.11818 0.18028-0.44141 0.88649-0.44141 0.96484 0 0.021535-0.034112 0.11234-0.076172 0.20117-0.0421 0.088835-0.08425 0.19576-0.09375 0.23633-0.0095 0.040573-0.024746 0.085115-0.035156 0.099609-0.02309 0.032157-0.15511 0.44085-0.24609 0.76367-0.03673 0.13045-0.08322 0.27935-0.10352 0.33008-0.02029 0.05075-0.0492 0.17409-0.0625 0.27344-0.01328 0.09935-0.038983 0.19881-0.058593 0.22266-0.09329 0.1133-0.32333 0.92674-0.36914 1.3047-0.0073 0.06021-0.026096 0.14204-0.041016 0.18164-0.01498 0.03957-0.019998 0.089197-0.011718 0.11133 0.0083004 0.02214 0.001155 0.073547-0.015625 0.11328-0.01657 0.03974-0.03119 0.085119-0.033203 0.099609-0.00179 0.0145-0.01357 0.07288-0.025391 0.13086-0.011821 0.05798-0.024666 0.12279-0.027344 0.14453-0.00247 0.02175-0.010023 0.058338-0.017578 0.080078-0.00759 0.02175-0.028413 0.12661-0.046875 0.23438-0.024246 0.14203-0.026574 0.19994-0.0058594 0.20703 0.038565 0.01317 0.017549 0.17663-0.033203 0.25586-0.023027 0.03598-0.044624 0.13522-0.048828 0.23242-0.00427 0.09319-0.012707 0.18086-0.021484 0.19531-0.02614 0.04323-0.08962 0.45581-0.17383 1.1406-0.11614 0.94456-0.15084 1.0732-0.3125 1.1309-0.11364 0.04052-0.15975 0.03621-0.23633-0.025391-0.080942-0.065129-0.11867-0.19247-0.20898-0.69726-0.036313-0.20292-0.089247-0.48144-0.11719-0.61914-0.052944-0.26093-0.18426-1.094-0.37695-2.3984-0.02248-0.15219-0.055052-0.3199-0.074219-0.37305-0.019191-0.05313-0.031056-0.1202-0.025391-0.15039 0.00548-0.03022 0.0018095-0.05664-0.0097656-0.05664-0.011698 0-0.027723-0.023735-0.035156-0.052735-0.00743-0.029-0.024864-0.052734-0.037109-0.052734-0.028511 0-0.11773 0.18298-0.18164 0.36914-0.13798 0.40192-0.30175 0.79392-0.35156 0.8418-0.15549 0.14943-0.39836 0.061086-0.40039-0.14648-6.094e-4 -0.06762 0.16288-0.61001 0.25391-0.83984 0.029122-0.07354 0.058879-0.16025 0.18359-0.55273 0.1561-0.49118 0.30765-0.93456 0.35352-1.0352 0.047885-0.10508 0.14963-0.16406 0.28516-0.16406 0.21367 0 0.27076 0.11192 0.36719 0.72461 0.02967 0.18842 0.068353 0.41219 0.087891 0.49805 0.019555 0.08586 0.03142 0.16384 0.025391 0.17383-0.018455 0.0305 0.064886 0.47737 0.11914 0.64063 0.028084 0.084559 0.056019 0.19882 0.0625 0.25195 0.00648 0.05313 0.024999 0.14961 0.041016 0.21484 0.016024 0.06523 0.028436 0.16021 0.027344 0.21094-0.00119 0.05075 0.0067803 0.15018 0.019531 0.22266 0.012793 0.07247 0.03769 0.23227 0.054688 0.35547 0.016937 0.12321 0.035958 0.23563 0.042969 0.24805 0.022967 0.0409 0.055661-0.045821 0.072266-0.19336 0.072601-0.64388 0.29718-1.8797 0.46484-2.5566 0.062829-0.25365 0.13283-0.53218 0.1543-0.61914 0.14298-0.57938 0.40343-1.471 0.4668-1.5957 0.0184-0.03625 0.033143-0.074536 0.033203-0.085938 3.29e-4 -0.042672 0.52958-1.5122 0.67578-1.877 0.11724-0.29254 0.31954-0.54322 0.4707-0.58203 0.072048-0.018498 0.14503-0.019278 0.21289-0.0058593zm4.2754 2.168c0.18164 0.034867 0.15133 0.23615-0.070312 0.46289-0.08481 0.086752-0.11938 0.10547-0.20508 0.10547-0.06869 0-0.11995-0.017592-0.1543-0.052734-0.17328-0.17725 0.15262-0.56879 0.42969-0.51562zm1.8047 0.17578c0.047121 6.946e-4 0.091722 0.012387 0.13477 0.035156 0.072569 0.038411 0.16211 0.1824 0.15234 0.24414-0.0018 0.011127-0.00112 0.025948 0.001953 0.033203 0.01461 0.032874 0.010964 0.44922-0.003906 0.44922-0.0092 0-0.012916 0.20952-0.009766 0.4668 0.006001 0.49111 0.032481 0.62812 0.13281 0.68555 0.05952 0.03404 0.15213 1.04e-4 0.51172-0.19141 0.27348-0.14571 0.2878-0.1506 0.4375-0.13672 0.13007 0.01206 0.16398 0.025361 0.21289 0.087891 0.03198 0.0409 0.058474 0.08309 0.058594 0.09375 0 0.01063-0.035268 0.081746-0.080078 0.15625-0.11008 0.18301-0.2353 0.25771-0.68555 0.4082-0.46551 0.15559-1.2418 0.54893-2.2734 1.1543-0.66449 0.38994-1.5907 0.99369-1.7207 1.1211-0.066649 0.06532-0.060382-0.010211-0.070312 1.0684-0.0036 0.42034-0.016804 0.78567-0.027344 0.8125-0.01224 0.0311-0.005282 0.057426 0.017578 0.072266 0.02706 0.01749 0.028517 0.023157 0.003907 0.023437-0.02431 2.99e-4 -0.026773 0.014591-0.007813 0.050781 0.01419 0.02706 0.018006 0.056043 0.009766 0.064454-0.01785 0.018269-0.029822 0.39091-0.013672 0.42187 0.01791 0.034431 0.039669 0.28337 0.037109 0.41992-0.0018 0.08636 0.00812 0.125 0.03125 0.125 0.04118 0 0.073913 0.18506 0.039063 0.2207-0.04033 0.04129-0.02962 0.11755 0.02539 0.17383 0.03997 0.04085 0.045854 0.065462 0.027344 0.11523-0.01657 0.04461-0.012581 0.079297 0.011719 0.11328 0.02327 0.03255 0.027659 0.06324 0.011719 0.09375-0.0131 0.02496-0.022582 0.054947-0.019532 0.066407 0.01389 0.051189-0.087247 0.18738-0.16797 0.22656-0.10643 0.05164-0.20703 0.053629-0.31445 0.005859-0.21586-0.09615-0.25142-0.26064-0.2207-1.0293 0.01273-0.31859 0.024794-1.0128 0.027344-1.541 0.0025-0.52818 0.010508-0.96873 0.017578-0.98047 0.02204-0.03653-0.040129-0.023832-0.11328 0.023438-0.07033 0.04544-0.30808 0.22824-0.67773 0.52148-0.43507 0.34514-1.2829 1.0617-1.4492 1.2246-0.09685 0.09484-0.33922 0.34452-0.53906 0.55469-0.19984 0.21016-0.48343 0.50378-0.62891 0.65234l-0.26367 0.26953h-0.14258c-0.19252 0-0.29637-0.089692-0.31641-0.27148-0.012733-0.11561-0.0055656-0.1341 0.099609-0.27344 0.19714-0.2614 1.0654-1.0672 1.8535-1.7207 0.09614-0.07972 0.28662-0.24146 0.42383-0.35742 0.21921-0.18526 0.70974-0.55579 1.5-1.1367l0.23828-0.17578v-0.14844c0-0.082291-0.008798-0.15698-0.017578-0.16602-0.0088-9e-3 -0.054126 0.013811-0.10156 0.050781-0.1178 0.09192-0.36896 0.16797-0.55664 0.16797-0.18274 0-0.30659-0.066018-0.37305-0.19531-0.08758-0.17038-0.06877-1.0546 0.03125-1.4531 0.08213-0.32719 0.2714-0.61996 0.50586-0.78516 0.38186-0.26906 0.5781-0.06989 0.29492 0.29883-0.19001 0.24741-0.29008 0.5238-0.30078 0.83008-0.01786 0.51076-0.013571 0.61071 0.03711 0.66797 0.10345 0.11683 0.3498 0.024998 0.4375-0.16406 0.057159-0.12315 0.11152-0.50423 0.1582-1.1113 0.06331-0.82337 0.067306-0.84072 0.23047-0.91992 0.11792-0.05724 0.2263-0.052588 0.30859 0.013671 0.06709 0.05397 0.068703 0.063956 0.064453 0.31055-0.0025 0.13972-0.01351 0.32514-0.02539 0.41211-0.05994 0.43925-0.12811 1.8047-0.089844 1.8047 0.0088 0 0.047557-0.021428 0.085937-0.048828 0.14524-0.10362 0.95418-0.60492 1.1504-0.71289 0.11258-0.06196 0.27554-0.15833 0.36133-0.21289 0.1504-0.09565 0.46388-0.27884 1.0059-0.58789 0.14169-0.08079 0.28053-0.16424 0.30859-0.18555 0.05027-0.03819 0.050365-0.039907-0.015625-0.10742-0.07073-0.072351-0.095087-0.16999-0.085937-0.34375 0.02759-0.52371 0.040874-1.1031 0.027343-1.1582-0.013889-0.05674-0.031974-0.068359-0.10937-0.068359-0.08355 0-0.24024 0.069103-0.24024 0.10547 0 0.0082-0.035275 0.053568-0.078125 0.10156-0.08783 0.09838-0.1543 0.24252-0.1543 0.33594 0 0.03449-0.008611 0.0625-0.019531 0.0625-0.01097 0-0.019881 0.05451-0.019531 0.12109 3.42e-4 0.06662-0.009675 0.12724-0.021485 0.13476-0.01188 0.0075-0.014899 0.053632-0.005859 0.10156 0.0088 0.04793 0.005287 0.095098-0.007813 0.10352-0.013269 0.0084-0.021971 0.15013-0.019531 0.31641 0.0036 0.25449-0.003015 0.3199-0.046875 0.41406-0.06352 0.13704-0.21228 0.2318-0.36523 0.23242-0.19796 5.54e-4 -0.1953 0.021289-0.12891-1.1992 0.03795-0.69748 0.061071-0.79049 0.22266-0.9082 0.08867-0.064588 0.33218-0.10904 0.48633-0.087891 0.09829 0.013509 0.11047 0.0060557 0.27344-0.1543 0.21576-0.21233 0.38012-0.31068 0.52148-0.30859zm-2.1074 0.88867c0.07333-0.0075 0.095078 0.0021006 0.12305 0.05664 0.0326 0.06334 0.032227 0.24776-0.001953 0.47461-0.0076 0.05075-0.02199 0.31193-0.03125 0.58008-0.03442 0.99776-0.020912 0.9367-0.23633 1.0859-0.13835 0.09585-0.23492 0.11333-0.3125 0.056641-0.05952-0.0435-0.060219-0.050731-0.042969-0.29688 0.0098-0.13922 0.026702-0.33604 0.039062-0.4375 0.01243-0.10146 0.042567-0.38641 0.066407-0.63281 0.04502-0.46503 0.11157-0.70548 0.20508-0.74219 0.02278-9e-3 0.034714-0.031141 0.027344-0.050781-0.016691-0.04456 0.048107-0.08181 0.16406-0.09375zm-4.3516 0.84766c0.05508 0 0.12891 0.1309 0.12891 0.22852 0 0.07757-0.13031 0.24052-0.25781 0.32422-0.13465 0.08839-0.23345 0.099982-0.29492 0.03711-0.08752-0.08954-0.014719-0.3378 0.13086-0.44727 0.11105-0.0835 0.23257-0.14258 0.29297-0.14258zm1.3496 0.67383c0.050187 0.003371 0.081716 0.036826 0.11914 0.099609 0.08361 0.14026 0.066947 0.22401-0.070313 0.3457-0.29376 0.26047-0.36572 0.34792-0.4082 0.50586-0.0226 0.08401-0.051583 0.17888-0.064453 0.21094-0.01286 0.03205-0.031156 0.26321-0.041016 0.51172-0.01518 0.38284-0.026556 0.46834-0.072265 0.56055-0.066061 0.13335-0.22844 0.25218-0.36914 0.27148-0.09771 0.01339-0.10744 0.008861-0.14648-0.068359-0.03565-0.07048-0.039833-0.14449-0.027343-0.49609 0.0081-0.22784 0.024369-0.48083 0.037109-0.56055 0.01273-0.07972 0.030403-0.27416 0.039063-0.43359 0.02248-0.41604 0.050671-0.52049 0.16797-0.62891 0.08481-0.07838 0.26904-0.14844 0.38867-0.14844 0.01315 0 0.11135-0.04229 0.21875-0.09375 0.11036-0.052859 0.17833-0.079543 0.22852-0.076172zm-1.6816 0.70703c0.079697-0.015596 0.14427 0.003437 0.16211 0.0625 0.03064 0.1014 0.036038 0.36978 0.011718 0.54492-0.01412 0.10193-0.026733 0.20287-0.027343 0.22461-6.03e-4 0.02175-0.023052 0.19438-0.050782 0.38281-0.04454 0.30275-0.077611 0.66883-0.082031 0.92773-6.1e-4 0.0471-0.007025 0.085938-0.015625 0.085938-0.0085 0-0.076919 0.047497-0.15234 0.10547-0.16833 0.12939-0.28881 0.14315-0.35547 0.039062-0.04313-0.06733-0.041191-0.25704 0.005859-0.97461 0.06404-0.97597 0.086302-1.0926 0.25-1.2559 0.078015-0.07782 0.17421-0.12698 0.25391-0.14258z" fill="#000"/>
</svg>
